<svg width="25" height="26" viewBox="0 0 25 26" fill="none" xmlns="http://www.w3.org/2000/svg">
<path d="M24.5407 19.8315L18.8361 14.6447C18.5665 14.3996 18.2121 14.2689 17.8479 14.2801C17.4837 14.2914 17.1381 14.4437 16.8841 14.705L13.5259 18.1587C12.7175 18.0043 11.0925 17.4977 9.41966 15.8291C7.74687 14.1549 7.24027 12.5256 7.09011 11.7229L10.5409 8.3633C10.8025 8.10947 10.9551 7.76382 10.9664 7.39949C10.9776 7.03516 10.8467 6.68074 10.6013 6.41124L5.41591 0.708035C5.17039 0.437689 4.82914 0.273705 4.46466 0.250908C4.10017 0.228111 3.74116 0.348298 3.46386 0.585944L0.418594 3.19757C0.17597 3.44108 0.0311564 3.76516 0.0116225 4.10835C-0.00942774 4.45918 -0.410785 12.7698 6.03339 19.2168C11.6552 24.8372 18.6972 25.2484 20.6366 25.2484C20.9201 25.2484 21.0941 25.24 21.1404 25.2371C21.4836 25.2179 21.8075 25.0725 22.0498 24.8288L24.66 21.7821C24.8986 21.5057 25.0197 21.147 24.9974 20.7825C24.9751 20.418 24.8112 20.0767 24.5407 19.8315Z" fill="black"/>
</svg>
