<svg width="25" height="26" viewBox="0 0 25 26" fill="none" xmlns="http://www.w3.org/2000/svg">
<path fill-rule="evenodd" clip-rule="evenodd" d="M21.9456 0.372437C23.6314 0.372437 25 1.74109 25 3.42683V22.318C25 24.0038 23.6313 25.3724 21.9456 25.3724H16.747V15.9528H19.9989L20.6177 11.9185H16.747V9.30051C16.747 8.19685 17.2876 7.12102 19.0214 7.12102H20.7812V3.68645C20.7812 3.68645 19.1841 3.41389 17.6571 3.41389C14.4692 3.41389 12.3856 5.34597 12.3856 8.84377V11.9185H8.84204V15.9528H12.3856V25.3724H3.05439C1.36865 25.3724 0 24.0038 0 22.318V3.42683C0 1.74109 1.3686 0.372437 3.05439 0.372437H21.9456V0.372437Z" fill="black"/>
</svg>
