<svg width="25" height="33" viewBox="0 0 25 33" fill="none" xmlns="http://www.w3.org/2000/svg">
<path fill-rule="evenodd" clip-rule="evenodd" d="M12.5 0C19.4037 0 25 5.59667 25 12.5C25 15.4546 23.9725 18.1671 22.2592 20.3067C22.26 20.3067 22.2604 20.3071 22.2608 20.3075C22.2612 20.3079 22.2608 20.3088 22.2604 20.3092C20.6094 22.3714 18.6096 24.8688 16.8512 27.0649C15.1722 29.1618 13.7133 30.9839 12.9879 31.89C12.8696 32.0383 12.6896 32.1242 12.4996 32.1242C12.31 32.1238 12.1304 32.0375 12.0117 31.8896C11.1668 30.8345 9.32748 28.5373 7.30444 26.0106C5.76975 24.0939 4.12933 22.045 2.73708 20.3062C2.73792 20.3062 2.73833 20.3058 2.73875 20.3054C2.73917 20.305 2.73875 20.3042 2.73833 20.3037C1.02667 18.165 0 15.4525 0 12.5C0 5.59667 5.59667 0 12.5 0ZM12.5 28.5L20.2362 18.8371C20.2596 18.8054 20.2833 18.7746 20.3075 18.7442C21.7421 16.9533 22.5 14.7942 22.5 12.5C22.5 6.98583 18.0138 2.5 12.5 2.5C6.98625 2.5 2.5 6.98583 2.5 12.5C2.5 14.7929 3.25708 16.9513 4.69 18.7417C4.71417 18.7721 4.7375 18.8029 4.76042 18.8342L4.83875 18.9317L12.5 28.5ZM16.875 12.5C16.875 14.9162 14.9162 16.875 12.5 16.875C10.0838 16.875 8.125 14.9162 8.125 12.5C8.125 10.0838 10.0838 8.125 12.5 8.125C14.9162 8.125 16.875 10.0838 16.875 12.5Z" fill="black"/>
</svg>
