<svg width="30" height="23" viewBox="0 0 30 23" fill="none" xmlns="http://www.w3.org/2000/svg">
<path fill-rule="evenodd" clip-rule="evenodd" d="M3.75 0.261841C1.67893 0.261841 0 1.94077 0 4.01184V19.2365C0 21.3075 1.67893 22.9865 3.75 22.9865H26.25C28.3211 22.9865 30 21.3075 30 19.2365V4.01184C30 1.94077 28.3211 0.261841 26.25 0.261841H3.75ZM2.5 4.55495V18.6843L9.44634 11.5885L2.5 4.55495ZM25.7686 20.4865H4.23426L11.2033 13.3675L12.4799 14.6601L12.4824 14.6626C13.8511 16.0409 16.247 16.0291 17.5959 14.6712L17.5965 14.6706L18.8511 13.4088L25.7686 20.4865ZM27.5 18.6812V4.70996L20.614 11.6357L27.5 18.6812ZM25.9115 2.76184H4.2428L14.2563 12.901L14.2572 12.9019C14.6472 13.2934 15.4501 13.2842 15.8225 12.9091L15.8231 12.9085L25.9115 2.76184Z" fill="black"/>
</svg>
